<svg xmlns="http://www.w3.org/2000/svg" width="800" height="400" role="img" aria-label="Low level SIGWX sample with synoptic symbols">
  <rect width="100%" height="100%" fill="#0b1d3a"/>
  <text x="40" y="70" fill="#fff" font-size="28" font-family="Arial">LOW-LEVEL SIGWX (SAMPLE)</text>

  <!-- Scattered TS area -->
  <ellipse cx="210" cy="185" rx="150" ry="70" fill="#3b274d" stroke="#c99cff" stroke-width="2" stroke-dasharray="7 6"/>
  <text x="130" y="170" fill="#fff" font-size="18" font-family="Arial">ISOL TS</text>
  <text x="135" y="205" fill="#ffd166" font-size="38" font-family="Arial">⛈</text>
  <text x="185" y="205" fill="#ffd166" font-size="38" font-family="Arial">⛈</text>

  <!-- Icing band -->
  <line x1="420" y1="155" x2="730" y2="155" stroke="#8bd3ff" stroke-width="4"/>
  <line x1="420" y1="225" x2="730" y2="225" stroke="#8bd3ff" stroke-width="4"/>
  <text x="430" y="145" fill="#8bd3ff" font-size="18" font-family="Arial">ICING MOD FL090–FL150</text>
  <text x="450" y="205" fill="#c8ecff" font-size="26" font-family="Arial">✳</text>
  <text x="515" y="205" fill="#c8ecff" font-size="26" font-family="Arial">✳</text>
  <text x="580" y="205" fill="#c8ecff" font-size="26" font-family="Arial">✳</text>
  <text x="645" y="205" fill="#c8ecff" font-size="26" font-family="Arial">✳</text>

  <!-- Cold front symbol -->
  <path d="M70 290 C165 255, 260 325, 355 290" fill="none" stroke="#4fc3f7" stroke-width="3"/>
  <polygon points="110,286 125,276 125,296" fill="#4fc3f7"/>
  <polygon points="175,292 190,282 190,302" fill="#4fc3f7"/>
  <polygon points="240,288 255,278 255,298" fill="#4fc3f7"/>
  <text x="70" y="330" fill="#9bd" font-size="17" font-family="Arial">COLD FRONT</text>
</svg>
